# xmcd
#
# Track frame offsets: 
#        150
#        13496
#        24598
#        42988
#        57915
#        69393
#        82257
#        97364
#        109128
#        121474
#        137510
#
# Disc length: 1999 seconds
#
# Revision: 0
# Processed by: cddbd v1.5.2PL0 Copyright (c) Steve Scherf et al.
# Submitted via: ExactAudioCopy v0.95b4
#
DISCID=a107cd0b
DTITLE=Marty Robbins -  Greatest Hits Vol III (Tape)
DYEAR=1900
DGENRE=Country
TTITLE0=Devil Woman
TTITLE1=Love Is Blue
TTITLE2=You Gave Me A Mountain
TTITLE3=I Walk Alone
TTITLE4=Ribbon Of Darkness
TTITLE5=It's A Sin
TTITLE6=Padre
TTITLE7=The Girl With Gardenias In Her Hair
TTITLE8=Jolie Girl
TTITLE9=My Woman, My Woman, My Wife
TTITLE10=Tonight Carmen
EXTD=
EXTT0=
EXTT1=
EXTT2=
EXTT3=
EXTT4=
EXTT5=
EXTT6=
EXTT7=
EXTT8=
EXTT9=
EXTT10=
PLAYORDER=
